#N canvas 722 454 657 437 10;
#N canvas 1482 346 675 577 interface 1;
#X obj 230 130 spigot 0;
#X obj 145 156 list prepend send;
#X obj 145 182 list trim;
#X obj 386 397 t f f;
#X obj 220 379 outlet;
#X obj 230 107 inlet;
#X obj 386 429 outlet;
#X obj 220 194 r startup;
#X msg 220 298 connect localhost \$1;
#X obj 220 272 route port;
#X obj 220 340 netclient;
#X obj 145 60 r \$0-debug;
#X obj 145 83 list prepend debug main;
#X connect 0 0 1 0;
#X connect 1 0 2 0;
#X connect 2 0 10 0;
#X connect 3 0 6 0;
#X connect 3 1 0 1;
#X connect 5 0 0 0;
#X connect 7 0 9 0;
#X connect 8 0 10 0;
#X connect 9 0 8 0;
#X connect 10 0 4 0;
#X connect 10 1 3 0;
#X connect 11 0 12 0;
#X connect 12 0 1 0;
#X restore 317 175 pd interface;
#X obj 317 117 metro 3000;
#X msg 317 145 message from PD;
#X obj 311 293 print;
#X msg 384 221 sel 1;
#X msg 387 261 connected;
#X connect 0 0 3 0;
#X connect 0 1 4 0;
#X connect 0 1 1 0;
#X connect 1 0 2 0;
#X connect 2 0 0 0;
#X connect 4 0 5 0;
#X connect 5 0 3 0;
