#N canvas 819 727 657 437 10;
#N canvas 1516 743 675 577 interface 1;
#X obj 340 184 spigot 0;
#X obj 261 229 list prepend send;
#X obj 261 255 list trim;
#X obj 394 297 t f f;
#X obj 261 324 outlet;
#X obj 340 161 inlet;
#X obj 394 329 outlet;
#X obj 169 81 r startup;
#X msg 169 162 connect localhost \$1;
#X obj 169 106 route port;
#X obj 261 285 netclient;
#X obj 169 133 pipe 3000;
#X connect 0 0 1 0;
#X connect 1 0 2 0;
#X connect 2 0 10 0;
#X connect 3 0 6 0;
#X connect 3 1 0 1;
#X connect 5 0 0 0;
#X connect 7 0 9 0;
#X connect 8 0 10 0;
#X connect 9 0 11 0;
#X connect 10 0 4 0;
#X connect 10 1 3 0;
#X connect 11 0 8 0;
#X restore 317 175 pd interface;
#X obj 461 270 print;
#X msg 461 241 connected;
#X obj 219 210 route statename;
#X obj 261 322 print state;
#X obj 269 273 print other;
#X obj 317 140 r toplay;
#X obj 371 330 s toplay;
#X obj 386 206 sel 1;
#X obj 371 259 delay 5000;
#X msg 370 294 started;
#X obj 30 300 t b;
#X obj 39 375 s toplay;
#X obj 194 108 loadbang;
#X msg 191 153 pd has started;
#X obj 162 197 print;
#X obj 59 248 route poems patches;
#X obj 113 303 t b;
#X msg 114 332 patchload;
#X obj 122 378 s toplay;
#X msg 31 329 poemload;
#X connect 0 0 3 0;
#X connect 0 1 8 0;
#X connect 2 0 1 0;
#X connect 3 0 4 0;
#X connect 3 0 16 0;
#X connect 3 1 5 0;
#X connect 6 0 0 0;
#X connect 8 0 2 0;
#X connect 8 0 9 0;
#X connect 9 0 10 0;
#X connect 10 0 7 0;
#X connect 11 0 20 0;
#X connect 13 0 14 0;
#X connect 14 0 15 0;
#X connect 16 0 11 0;
#X connect 16 1 17 0;
#X connect 17 0 18 0;
#X connect 18 0 19 0;
#X connect 20 0 12 0;
