#N canvas 249 591 657 437 10;
#N canvas 955 520 675 577 interface 0;
#X obj 230 130 spigot 0;
#X obj 145 156 list prepend send;
#X obj 145 182 list trim;
#X obj 386 397 t f f;
#X obj 220 379 outlet;
#X obj 230 107 inlet;
#X obj 386 429 outlet;
#X obj 220 194 r startup;
#X msg 220 298 connect localhost \$1;
#X obj 220 272 route port;
#X obj 220 340 netclient;
#X obj 145 60 r \$0-debug;
#X obj 145 83 list prepend debug main;
#X connect 0 0 1 0;
#X connect 1 0 2 0;
#X connect 2 0 10 0;
#X connect 3 0 6 0;
#X connect 3 1 0 1;
#X connect 5 0 0 0;
#X connect 7 0 9 0;
#X connect 8 0 10 0;
#X connect 9 0 8 0;
#X connect 10 0 4 0;
#X connect 10 1 3 0;
#X connect 11 0 12 0;
#X connect 12 0 1 0;
#X restore 317 175 pd interface;
#X obj 386 260 print;
#X msg 386 204 sel 1;
#X msg 386 231 connected;
#X obj 317 200 route sum;
#X obj 317 229 unpack f f;
#X obj 317 260 +;
#X msg 190 221 number is \$1;
#X connect 0 0 4 0;
#X connect 0 1 2 0;
#X connect 2 0 3 0;
#X connect 3 0 1 0;
#X connect 4 0 5 0;
#X connect 5 0 6 0;
#X connect 5 1 6 1;
#X connect 6 0 7 0;
#X connect 7 0 0 0;
