#N canvas 1127 273 589 454 10;
#X obj 118 114 r to-patch;
#X obj 124 271 random 42;
#X obj 116 148 t b;
#X msg 120 196 1;
#X obj 338 162 delay 30000;
#X msg 167 193 0;
#X obj 126 319 prepend note;
#X obj 227 386 s from-patch;
#X msg 347 226 finished;
#X obj 118 227 metro 1000;
#X obj 266 38 loadbang;
#X obj 270 110 print;
#X msg 271 70 test patch 2;
#X connect 0 0 2 0;
#X connect 1 0 6 0;
#X connect 2 0 3 0;
#X connect 2 0 4 0;
#X connect 3 0 9 0;
#X connect 4 0 5 0;
#X connect 4 0 8 0;
#X connect 5 0 9 0;
#X connect 6 0 7 0;
#X connect 8 0 7 0;
#X connect 9 0 1 0;
#X connect 10 0 12 0;
#X connect 12 0 11 0;
