#N canvas 1601 572 582 430 10;
#X obj 49 24 inlet;
#X obj 49 67 route start stop;
#X obj 315 197 outlet;
#X obj 323 119 metro 60000;
#X msg 318 169 checkstate;
#X obj 30 357 outlet;
#X obj 144 104 t b;
#X msg 232 108 1;
#X msg 172 194 0;
#X obj 322 62 loadbang;
#X msg 325 92 0;
#X text 30 319 the interface to the keyboard needs to go here;
#X text 77 358 send notes out this outlet;
#X obj 386 195 print keychkst;
#X obj 46 141 spigot 1;
#X msg 164 150 1;
#X msg 104 118 0;
#X obj 87 216 t b b;
#X msg 199 224 1;
#X msg 258 234 0;
#X obj 212 263 metro 2000;
#X msg 230 291 30 100;
#X connect 0 0 1 0;
#X connect 1 0 14 0;
#X connect 1 1 6 0;
#X connect 3 0 4 0;
#X connect 4 0 2 0;
#X connect 4 0 13 0;
#X connect 6 0 8 0;
#X connect 6 0 15 0;
#X connect 6 0 19 0;
#X connect 7 0 3 0;
#X connect 8 0 3 0;
#X connect 9 0 10 0;
#X connect 10 0 3 0;
#X connect 14 0 17 0;
#X connect 15 0 14 1;
#X connect 16 0 14 1;
#X connect 17 0 7 0;
#X connect 17 0 18 0;
#X connect 17 1 16 0;
#X connect 18 0 20 0;
#X connect 19 0 20 0;
#X connect 20 0 21 0;
#X connect 21 0 5 0;
