#N canvas 1000 556 450 300 10;
#X obj 55 47 inlet;
#X obj 55 90 route start stop;
#X obj 247 212 outlet;
#X obj 265 108 metro 60000;
#X obj 276 47 loadbang;
#X msg 274 78 1;
#X msg 260 158 checkstate;
#X obj 78 180 outlet;
#X connect 0 0 1 0;
#X connect 3 0 6 0;
#X connect 4 0 5 0;
#X connect 5 0 3 0;
#X connect 6 0 2 0;
