#N canvas 1277 765 657 437 10;
#X obj 272 133 route statename;
#X obj 272 194 print state;
#X obj 359 202 print other;
#X obj 389 123 sel 1;
#X obj 117 227 t b;
#X obj 131 178 route poems patches;
#X obj 213 228 t b;
#X msg 213 252 patchload;
#X msg 117 253 poemload;
#N canvas 1516 743 675 577 network-interface 0;
#X obj 340 184 spigot 0;
#X obj 261 229 list prepend send;
#X obj 261 255 list trim;
#X obj 394 297 t f f;
#X obj 340 161 inlet;
#X obj 394 329 outlet;
#X obj 116 83 r startup;
#X msg 116 164 connect localhost \$1;
#X obj 116 108 route port;
#X obj 261 285 netclient;
#X obj 348 372 outlet;
#X msg 261 433 \; pd dsp \$1;
#X obj 288 391 spigot;
#X obj 261 349 route dsp debug;
#X obj 304 371 tgl 15 0 empty empty empty 17 7 0 10 -262144 -1 -1 0
1;
#X obj 261 318 t a a;
#X obj 288 412 s \$0-debug;
#X obj 261 104 r \$0-debug;
#X obj 261 127 list prepend debug main;
#X obj 116 135 pipe 1000;
#X connect 0 0 1 0;
#X connect 1 0 2 0;
#X connect 2 0 9 0;
#X connect 3 0 5 0;
#X connect 3 1 0 1;
#X connect 4 0 0 0;
#X connect 6 0 8 0;
#X connect 7 0 9 0;
#X connect 8 0 19 0;
#X connect 9 0 15 0;
#X connect 9 1 3 0;
#X connect 12 0 16 0;
#X connect 13 0 11 0;
#X connect 13 1 14 0;
#X connect 13 2 10 0;
#X connect 14 0 12 1;
#X connect 15 0 13 0;
#X connect 15 1 12 0;
#X connect 17 0 18 0;
#X connect 18 0 1 0;
#X connect 19 0 7 0;
#X restore 272 99 pd network-interface;
#X obj 272 64 r toserver;
#X obj 213 277 s toserver;
#X obj 117 279 s toserver;
#X msg 389 148 started;
#X obj 389 173 s toserver;
#X connect 0 0 1 0;
#X connect 0 0 5 0;
#X connect 0 1 2 0;
#X connect 3 0 13 0;
#X connect 4 0 8 0;
#X connect 5 0 4 0;
#X connect 5 1 6 0;
#X connect 6 0 7 0;
#X connect 7 0 11 0;
#X connect 8 0 12 0;
#X connect 9 0 0 0;
#X connect 9 1 3 0;
#X connect 10 0 9 0;
#X connect 13 0 14 0;
