#N canvas 1110 458 634 475 10;
#X obj 68 30 inlet;
#X text 145 -37 this will be were the prewritten poems play;
#X text 145 -16 eventually these will be patches;
#X obj 262 118 delay 10000;
#X obj 262 84 t b;
#X msg 262 145 finished;
#X obj 262 173 outlet;
#X obj 330 75 print bangpatch;
#X obj 356 171 print patchdone;
#X obj 39 235 print patchfile;
#X obj 186 256 outlet;
#X msg 148 162 1;
#X msg 207 172 0;
#X obj 161 201 metro 2000;
#X msg 179 229 20 100;
#X connect 0 0 4 0;
#X connect 0 0 9 0;
#X connect 3 0 5 0;
#X connect 3 0 12 0;
#X connect 4 0 3 0;
#X connect 4 0 7 0;
#X connect 4 0 11 0;
#X connect 5 0 6 0;
#X connect 5 0 8 0;
#X connect 11 0 13 0;
#X connect 12 0 13 0;
#X connect 13 0 14 0;
#X connect 14 0 10 0;
