#N canvas 1923 657 450 300 10;
#X obj 68 58 inlet;
#N canvas 1037 899 469 356 patchcontrol 0;
#X obj 64 39 inlet;
#X msg 64 189 \; pd open \$1 \$2;
#X obj 180 171 makefilename pd-%s;
#X msg 180 191 \; \$1 menuclose \;;
#X obj 64 148 symbol;
#X obj 110 148 symbol;
#X obj 64 168 pack s s;
#X obj 180 149 symbol;
#X obj 64 100 unpack s s;
#X obj 64 70 route load close;
#X obj 180 112 t b;
#X obj 25 246 print ll;
#X connect 0 0 9 0;
#X connect 2 0 3 0;
#X connect 4 0 6 0;
#X connect 5 0 6 1;
#X connect 6 0 1 0;
#X connect 6 0 11 0;
#X connect 7 0 2 0;
#X connect 8 0 4 0;
#X connect 8 0 7 1;
#X connect 8 1 5 0;
#X connect 9 0 8 0;
#X connect 9 1 10 0;
#X connect 10 0 7 0;
#X restore 68 160 pd patchcontrol;
#X obj 205 128 delay 1000;
#X msg 68 120 load \$1 \$2;
#X msg 159 127 close;
#X obj 205 227 outlet;
#X msg 213 168 finished;
#X obj 196 92 route finished note;
#X obj 297 188 outlet;
#X obj 37 159 t b;
#X obj 36 191 delay 5000;
#X obj 35 237 s to-patch;
#X obj 196 64 r from-patch;
#X obj 138 39 print loadingpatch;
#X obj 64 88 list;
#X connect 0 0 14 0;
#X connect 2 0 6 0;
#X connect 3 0 1 0;
#X connect 3 0 9 0;
#X connect 3 0 13 0;
#X connect 4 0 1 0;
#X connect 6 0 5 0;
#X connect 7 0 4 0;
#X connect 7 0 2 0;
#X connect 7 1 8 0;
#X connect 9 0 10 0;
#X connect 10 0 11 0;
#X connect 12 0 7 0;
#X connect 14 0 3 0;
