#N canvas 865 295 543 372 10;
#X obj 64 88 inlet;
#X obj 15 262 print poemfile;
#X obj 251 183 delay 10000;
#X obj 251 149 t b;
#X msg 251 210 finished;
#X obj 251 238 outlet;
#X obj 345 236 print poemdone;
#X obj 318 139 print bangpoem;
#X obj 125 266 outlet;
#X msg 87 172 1;
#X msg 146 182 0;
#X obj 100 211 metro 2000;
#X msg 118 239 10 100;
#X connect 0 0 1 0;
#X connect 0 0 3 0;
#X connect 2 0 10 0;
#X connect 2 0 4 0;
#X connect 3 0 2 0;
#X connect 3 0 7 0;
#X connect 3 0 9 0;
#X connect 4 0 6 0;
#X connect 4 0 5 0;
#X connect 9 0 11 0;
#X connect 10 0 11 0;
#X connect 11 0 12 0;
#X connect 12 0 8 0;
